<svg xmlns="http://www.w3.org/2000/svg" viewBox="0 0 650 650" width="650" height="650" shape-rendering="geometricPrecision">
  <title>XyourP logo</title>
  <defs>
    <linearGradient id="purple" gradientUnits="userSpaceOnUse" x1="210" y1="540" x2="620" y2="105">
      <stop offset="0" stop-color="#7f1c8d"/>
      <stop offset="1" stop-color="#7f1c8d"/>
    </linearGradient>
    <linearGradient id="green" gradientUnits="userSpaceOnUse" x1="0" y1="0" x2="1" y2="0">
      <stop offset="0" stop-color="#51d910"/>
      <stop offset="1" stop-color="#51d910"/>
    </linearGradient>
    <linearGradient id="greenShadow" gradientUnits="userSpaceOnUse" x1="110" y1="500" x2="430" y2="150">
      <stop offset="0" stop-color="#4d981a"/>
      <stop offset="1" stop-color="#4d981a"/>
    </linearGradient>
    <linearGradient id="purpleShadow" gradientUnits="userSpaceOnUse" x1="250" y1="250" x2="520" y2="80">
      <stop offset="0" stop-color="#601b64"/>
      <stop offset="1" stop-color="#601b64"/>
    </linearGradient>
  </defs>
  <path fill="url(#purple)" fill-rule="evenodd" d="M297 540.29C289.46 539.46 270.97 535.75 260.5 532.97C254.45 531.36 245.68 528.65 241 526.96C232.45 523.85 206.16 511.36 202.58 508.7L200.65 507.27L209.08 493.09C213.71 485.29 218.74 476.57 220.27 473.72C221.79 470.86 223.89 467.66 224.94 466.62L226.85 464.71L231.67 467.38C246.66 475.67 264.69 483 279.65 486.88C296.28 491.2 304.3 492.3 319.5 492.36L334.5 492.42L341 490.13C344.57 488.87 351.04 485.96 355.36 483.67C365.03 478.54 374.11 469.32 378.72 459.93C380.49 456.32 382.66 450.29 383.53 446.54C384.4 442.78 385.53 433.51 386.04 425.95C386.73 415.7 387.57 410.51 389.35 405.61C390.67 401.98 393.27 396.49 395.12 393.39C399.21 386.59 407.48 378.1 414.97 373.03C418.01 370.97 424.1 368.01 428.5 366.46L436.5 363.63L471.5 362.96L506.5 362.28L515.07 359.7C519.78 358.28 526.08 356.16 529.07 354.99C537.9 351.54 549.02 345.12 556.32 339.27C563.61 333.43 572.44 323.28 578.81 313.42C583.19 306.64 589.85 292.43 591.18 287.03C596.06 267.15 596.15 248.6 591.49 227.5C591.12 225.85 589 220.22 586.77 215C580.07 199.3 568.93 184.74 555.41 173.99C546.99 167.3 531.86 159.34 520 155.35L511.5 152.5L419.58 152.22L327.65 151.94L319.58 153.56C310.26 155.44 299.03 160.03 288.13 166.43C283.93 168.9 276.62 174.52 271.88 178.92C267.14 183.32 262.98 186.64 262.63 186.3C262.29 185.96 263.66 182.71 265.67 179.09C277.58 157.63 292.56 140.78 312.24 126.71C324.52 117.92 343.14 109.3 359 105.07C361.48 104.41 364.88 103.44 366.57 102.93C368.34 102.4 398.39 102 437.44 102C493.08 102 507.15 102.28 515.87 103.53C528.11 105.3 542.43 109.08 552.5 113.21C562.98 117.51 577.71 126.16 587.67 133.85C596.96 141.03 611.74 156.01 617.9 164.5C621.13 168.94 625.39 175.59 628.79 181.5C631.82 186.76 639.91 206.02 640.57 209.53C640.98 211.72 641.97 215.07 642.78 217C644.56 221.26 646.02 229.24 646.67 238.19C646.97 242.23 647.72 245.35 648.58 246.07C649.62 246.93 650 249.72 650 256.5C650 263.18 649.61 266.08 648.61 266.91C647.81 267.57 646.98 270.91 646.64 274.78C645.76 284.99 644.49 292.08 642.75 296.5C641.89 298.7 640.92 301.97 640.61 303.76C640.14 306.47 634.88 318.5 629.56 329C623.65 340.68 610.77 357.99 600.83 367.63C593.38 374.84 579.72 385.31 571.4 390.18C556.76 398.75 539.32 405.14 521 408.65L507.5 411.24L477.71 411.75L447.92 412.25L444.8 414.38C438.99 418.34 438.23 420.37 436.59 436.5C434.04 461.6 432.91 466.33 426.59 478.32C424.62 482.08 423 485.68 423 486.33C423 488.14 412.48 501.74 405.62 508.8C402.25 512.26 396.18 517.35 392.13 520.11C377.29 530.2 364.11 535.47 345.04 538.92C336.07 540.55 329.97 540.97 317.04 540.84C307.94 540.75 298.93 540.51 297 540.29Z"/>
  <path fill="url(#purpleShadow)" fill-rule="evenodd" d="M267 180.6C267 179.42 275.49 165.91 280.37 159.32C287.2 150.11 300.89 136.77 310.86 129.63C324.33 119.98 342.25 111.59 359 107.08C361.48 106.41 364.88 105.44 366.57 104.93C368.26 104.42 371.19 104.02 373.07 104.03L376.5 104.07L369.5 106.84C358.67 111.13 346.38 117.55 339.11 122.74C329.52 129.57 316.17 141.8 310 149.41C306 154.34 303.25 156.65 299.2 158.51C290.04 162.7 281.83 168.05 274.25 174.76C270.26 178.29 267 180.92 267 180.6Z"/>
  <path fill="url(#green)" fill-rule="evenodd" d="M2.51 526.02C2.18 525.48 2.44 524.02 3.1 522.77C3.76 521.52 10.15 510.6 17.3 498.5C51.23 441.11 56.93 431.46 65.51 417C70.57 408.48 80.01 392.5 86.51 381.5C93 370.5 105.22 349.89 113.66 335.7C122.09 321.51 129 309.33 129 308.64C129 307.96 126.86 304.23 124.25 300.37C119.81 293.81 105.72 272.8 32.03 162.84C15.94 138.82 3.05 118.73 3.38 118.19C3.76 117.58 15.06 117.31 33.74 117.47C50.11 117.61 64.26 117.79 65.18 117.86C66.14 117.94 70.03 122.82 74.25 129.25C83.78 143.76 83.03 142.63 93.44 158.16C98.36 165.5 114.49 189.72 129.28 212C144.06 234.28 156.84 253.18 157.66 254L159.15 255.5L161.83 252.3C163.3 250.55 169.66 240.2 175.96 229.3C182.26 218.41 190.07 205 193.31 199.5C196.56 194 201.07 186.35 203.33 182.5C216.08 160.83 228.61 145.99 244 134.35C253.99 126.81 260.94 122.45 271.15 117.37C284.02 110.95 297.87 106.47 312.38 104.02C322.13 102.37 328.1 102.01 341.57 102.23C352.07 102.4 358.47 102.88 358.43 103.5C358.39 104.05 357.04 104.9 355.43 105.39C344.33 108.74 330.23 114.95 320.5 120.76C304.14 130.53 283.95 149.79 273.2 165.87C269.84 170.89 263.89 181.42 259.98 189.25C253.27 202.72 251.13 206.51 243.5 218.5C238.51 226.33 233 235.74 233 236.43C233 236.77 231.28 239.85 229.18 243.27C223.56 252.45 218.53 260.97 216.07 265.5C214.88 267.7 212.37 271.98 210.5 275C208.63 278.02 205.71 282.98 204.01 286C202.32 289.02 199.98 293.07 198.83 295C197.68 296.93 194.38 302.55 191.51 307.5C185.77 317.4 169.22 345.56 159.5 362C156.08 367.77 149.07 379.7 143.93 388.5C138.79 397.3 133.66 405.93 132.54 407.69C129.88 411.84 127.35 416.13 119.67 429.5C105.72 453.76 91.49 477.71 88.82 481.4C87.27 483.55 86 485.84 86 486.5C86 487.16 84.65 489.56 83 491.84C81.35 494.12 80 496.25 80 496.57C80 496.89 76.2 503.59 71.55 511.45C65.51 521.65 62.44 525.92 60.8 526.36C59.53 526.7 46.04 526.98 30.81 526.99C13.8 526.99 2.88 526.62 2.51 526.02ZM300 471.49C286.55 469.29 275.76 466.31 261.5 460.89C249.68 456.39 238.24 449.93 227.05 441.44C217.84 434.45 212.05 428.6 204.36 418.5C202.68 416.3 194.92 404.94 187.12 393.26L172.92 372.03L185.82 350.26C192.92 338.29 199.49 327.01 200.42 325.19C201.35 323.36 202.52 322.01 203.01 322.19C203.5 322.36 213.89 337.35 226.11 355.5C238.32 373.65 250.52 391.04 253.22 394.15C255.92 397.25 260.8 401.67 264.07 403.97C267.33 406.26 273.77 409.9 278.36 412.05C286.78 415.99 303.35 420.99 308.03 421C311.77 421 314.86 418.37 315.39 414.72C318.51 393.31 321.9 381.91 329.53 367.2C332.47 361.53 337.48 353.28 340.66 348.86C351.27 334.13 369.61 318.23 388.2 307.65C395.65 303.41 409.78 298.38 421.09 295.94L431.5 293.7L465 293.08L498.5 292.47L503 290.1C513.05 284.81 519.23 277.96 522.46 268.5C524.9 261.37 524.67 250.87 521.92 243.52C518.92 235.49 512.29 228.52 504.16 224.86L497.81 222L467.52 222L437.22 222L435.11 223.75L433 225.5L432.75 249.92L432.5 274.34L423.37 276.08C412.43 278.17 398.01 282.99 388.71 287.66C384.97 289.53 381.49 290.8 380.96 290.47C380.37 290.11 380 271.67 380 242.57C380 190.21 379.92 190.97 386.52 181.97C388.84 178.82 391.85 176.26 395.23 174.57L400.39 172L452.24 172C495.5 172 505.35 172.26 511.7 173.57C528.81 177.11 540.51 183.54 553.47 196.56C560.2 203.31 563.56 207.65 566.64 213.56C574.57 228.77 577.27 239.82 577.4 257.5C577.46 267.09 577.01 271.31 575.12 278.5C572.16 289.81 568.29 298.44 562.58 306.44C556.69 314.7 544.96 325.5 536.28 330.66C532.43 332.95 525.05 336.17 519.88 337.83C514.72 339.48 506.12 341.32 500.78 341.92C495.45 342.51 481.05 343.01 468.79 343.02C456.53 343.03 443.47 343.48 439.78 344.01C430.29 345.38 421.91 348.44 411.53 354.32C400.7 360.46 389.24 371.07 382.2 381.49C373.56 394.28 368.01 412.01 367.99 426.84C367.98 442.29 363.8 454.34 356.09 461.19C350.37 466.26 341.45 470.37 332.89 471.86C324.73 473.28 309.89 473.11 300 471.49Z"/>
  <path fill="#8bd564" fill-rule="evenodd" d=""/>
  <path fill="#54c114" fill-rule="evenodd" d="M276.5 464.05C271.55 462.5 264.35 460.02 260.5 458.55C242.17 451.53 221.17 436.98 210.87 424.18C207.48 419.96 199.79 409.17 193.79 400.19L182.88 383.87L191.3 369.68C195.92 361.88 202.12 351.33 205.07 346.24C208.02 341.14 210.76 337.09 211.16 337.24C211.57 337.38 219.65 348.98 229.12 363C238.59 377.02 248.83 391.36 251.88 394.85C254.92 398.34 260.21 403.19 263.61 405.62C267.02 408.05 273.62 411.82 278.26 414C286.58 417.9 303.3 422.99 307.8 423C309.06 423 311.37 422.34 312.92 421.54L315.75 420.08L315.27 424.79C313.82 439.31 308.51 452.43 301.46 458.93C296.77 463.25 290.08 467.04 287.29 466.94C286.31 466.9 281.45 465.6 276.5 464.05ZM97.18 257.25C84.09 237.59 59.18 200.35 41.84 174.5C24.49 148.65 9.73 126.42 9.03 125.1L7.77 122.7L9.38 123.32C10.26 123.66 12.91 123.11 15.25 122.11C18.28 120.81 20.21 120.53 21.9 121.16C23.22 121.65 25.24 121.73 26.39 121.35C27.55 120.96 32.1 120.5 36.5 120.33C40.9 120.15 47.6 119.74 51.4 119.41C55.19 119.08 60.14 119.1 62.4 119.44L66.5 120.05L71 127.08C77.89 137.83 81.72 143.65 91.44 158.16C96.36 165.5 111.55 188.29 125.2 208.81L150.01 246.13L140.69 261.81C135.57 270.44 129.4 280.99 126.99 285.25C124.58 289.51 122.24 293 121.8 293C121.35 293 110.28 276.91 97.18 257.25Z"/>
  <path fill="url(#greenShadow)" fill-rule="evenodd" d="M178.56 377.53L174.93 372.06L188.72 348.58C196.3 335.66 202.77 325.07 203.11 325.05C203.44 325.02 205.36 327.48 207.38 330.51L211.04 336.03L198.87 356.76C192.18 368.17 185.99 378.73 185.1 380.24C184.22 381.75 183.21 382.99 182.85 382.99C182.49 383 180.56 380.54 178.56 377.53ZM126.29 300.25L122.08 293.79L129.38 281.14C142.18 258.96 149.41 247 149.96 247.07C150.26 247.11 152.41 249.59 154.75 252.57L159 257.98L147.65 277.24C141.41 287.83 134.99 298.8 133.4 301.61L130.49 306.71L126.29 300.25ZM382 282.74L382 276.46L392.04 272.23C403.34 267.46 414.38 264.36 424.3 263.16L431 262.36L431 267.52L431 272.68L423.75 273.95C414.37 275.6 397.49 281.23 388.82 285.59L382 289.03L382 282.74Z"/>
</svg>
